<svg width="269" height="48" viewBox="0 0 269 48" fill="none" xmlns="http://www.w3.org/2000/svg">
<path d="M12 0H0V48H12.5V37L17.5 31.5L27 48H41.5L26 21L40.5 0H26L12 21V0Z" fill="white"/>
<path fill-rule="evenodd" clip-rule="evenodd" d="M44.5 0H69C73.1667 0.833333 81.5 5.5 81.5 14.5C81.5 24.1 76 27.5 74 28L84 48H71L62.5 31.5H56.5V48H44.5V0ZM56.5 21V9.5H66C67.6667 10 70 12 70 16C69.2 20 67 21 66 21H56.5Z" fill="white"/>
<path fill-rule="evenodd" clip-rule="evenodd" d="M109.001 0H158.501C166.001 0.479798 180.801 6.04545 180.001 24.4697C179.201 42.8939 165.334 47.5 158.501 47.5H109.001C102.168 46.7003 88.4011 40.9748 88.0011 24.4697C87.6011 7.96465 99 1.91919 109.001 0ZM115.751 10.0758H152.859C158.481 10.3472 169.576 13.4954 168.977 23.9172C168.377 34.339 157.982 36.9444 152.859 36.9444H115.751C110.628 36.4921 100.308 33.2534 100.008 23.9172C99.7078 14.581 108.253 11.1614 115.751 10.0758Z" fill="white"/>
<path fill-rule="evenodd" clip-rule="evenodd" d="M186 0H210.5C215 1 224 5.8 224 17C224 28.2 215 32 210.5 32.5H198V48H186V0ZM208 10H198V23H208C209.5 22.8333 212 20.5 212 17C212 12.5819 209.167 10.5 208 10Z" fill="white"/>
<path fill-rule="evenodd" clip-rule="evenodd" d="M231 0H255.5C260 1 269 5.8 269 17C269 28.2 260 32 255.5 32.5H243V48H231V0ZM253 10H243V23H253C254.5 22.8333 257 20.5 257 17C257 12.5819 254.167 10.5 253 10Z" fill="white"/>
</svg>
